<svg id="Layer_1" data-name="Layer 1" xmlns="http://www.w3.org/2000/svg" xmlns:xlink="http://www.w3.org/1999/xlink" viewBox="0 0 1920 1080"><defs><style>.cls-1{fill:url(#linear-gradient);}.cls-2{fill:url(#linear-gradient-2);}</style><linearGradient id="linear-gradient" x1="991.02" y1="277.01" x2="991.02" y2="-307.74" gradientUnits="userSpaceOnUse"><stop offset="0" stop-color="#d5e4f3"/><stop offset="1" stop-color="#46a2ff"/></linearGradient><linearGradient id="linear-gradient-2" x1="1001.51" y1="135.02" x2="1001.51" y2="-404.51" xlink:href="#linear-gradient"/></defs><title>bg_pattern_3</title><path class="cls-1" d="M-35,28c3,93-28.12,123.17,74,128,86,4.07,246.94-38.74,333-38,77.48.67,277.65,43.45,355,48,85,5,229-21,357-26,160.66-6.28,432.65,42,482,38,174-14,208.93-62.33,341-63,161.95-.83,8.42,163.31,55,162,70.3-2,63.88-103.19,43.5-170.5C1858.58-378.75-51.35-478.74-35,28Z"/><path class="cls-2" d="M-14.5-29.5C-17.76,72.68-56.12,113.17,46,118c86,4.07,245.94-37.74,332-37,77.48.67,248.56,35.61,326,38,162,5,203-18,331-23,160.66-6.28,462.51,28.54,512,30,68,2,243.93-42.33,376-43,161.95-.83.42,53.31,47,52,70.3-2,63.88-103.19,43.5-170.5C1866.58-520.75,1.69-536.24-14.5-29.5Z"/></svg>
