<svg id="Layer_1" data-name="Layer 1" xmlns="http://www.w3.org/2000/svg" xmlns:xlink="http://www.w3.org/1999/xlink" viewBox="0 0 1920 1080"><defs><style>.cls-1{fill:url(#linear-gradient);}.cls-2{fill:url(#linear-gradient-2);}</style><linearGradient id="linear-gradient" x1="989.76" y1="393.82" x2="989.76" y2="-305.51" gradientUnits="userSpaceOnUse"><stop offset="0" stop-color="#d5e4f3"/><stop offset="1" stop-color="#46a2ff"/></linearGradient><linearGradient id="linear-gradient-2" x1="992.76" y1="266.57" x2="992.76" y2="-397.51" xlink:href="#linear-gradient"/></defs><title>bg_pattern_2</title><path class="cls-1" d="M-20.5,69.5C-23.76,171.68-85.12,230.17,17,235c86,4.07,188.94-34.74,275-34,77.48.67,169.94,132.93,235,175,133,86,324-167,452-172,160.66-6.28,353.35,112.43,400,129,214,76,365.93-127.33,498-128,162-.83,40.42,30.31,87,29,70.3-2,63.88-103.19,43.5-170.5C1860.58-421.75-4.31-437.24-20.5,69.5Z"/><path class="cls-2" d="M-17.5-22.5C-20.76,79.68-82.12,138.17,20,143c86,4.07,229.94-66.74,316-66,77.48.67,148.94,127.93,214,170,133,86,354-139,482-144,160.66-6.28,367.35,75.43,414,92,214,76,333.93-126.33,466-127,161.95-.83,8.42,75.31,55,74,70.3-2,63.88-103.19,43.5-170.5C1863.58-513.75-1.31-529.24-17.5-22.5Z"/></svg>
